<svg width="16" height="16" viewBox="0 0 16 16" fill="none" xmlns="http://www.w3.org/2000/svg">
<path fill-rule="evenodd" clip-rule="evenodd" d="M7.9999 2.2439C8.93394 2.2089 9.86926 2.23496 10.7999 2.3219C11.2513 2.31616 11.6997 2.3952 12.1219 2.5549C12.7043 2.82638 13.1724 3.29447 13.4439 3.8769C13.6041 4.29935 13.6834 4.74814 13.6779 5.1999C13.6779 5.8999 13.7559 6.1329 13.7559 7.9999C13.7909 8.93394 13.7648 9.86926 13.6779 10.7999C13.6836 11.2513 13.6046 11.6997 13.4449 12.1219C13.1734 12.7043 12.7053 13.1724 12.1229 13.4439C11.7007 13.6036 11.2523 13.6826 10.8009 13.6769C10.1009 13.6769 9.8679 13.7549 8.0009 13.7549C7.06686 13.7899 6.13154 13.7638 5.2009 13.6769C4.74954 13.6826 4.30111 13.6036 3.8789 13.4439C3.29647 13.1724 2.82838 12.7043 2.5569 12.1219C2.39651 11.6998 2.3168 11.2514 2.3219 10.7999C2.3219 10.0999 2.2439 9.8669 2.2439 7.9999C2.2089 7.06586 2.23496 6.13054 2.3219 5.1999C2.31616 4.74854 2.3952 4.30011 2.5549 3.8779C2.69081 3.58935 2.87514 3.32621 3.0999 3.0999C3.28245 2.82802 3.55988 2.63403 3.8779 2.5559C4.30004 2.39586 4.74847 2.31648 5.1999 2.3219C6.13054 2.23496 7.06586 2.2089 7.9999 2.2439ZM7.9999 0.999901C7.03988 0.965724 6.07866 0.991775 5.1219 1.0779C4.53739 1.07653 3.95754 1.18192 3.4109 1.3889C2.93902 1.54296 2.51195 1.81005 2.1669 2.1669C1.81005 2.51195 1.54296 2.93902 1.3889 3.4109C1.14474 3.94655 1.03786 4.53459 1.0779 5.1219C0.991775 6.07866 0.965724 7.03988 0.999901 7.9999C0.965724 8.95992 0.991775 9.92114 1.0779 10.8779C1.07653 11.4624 1.18192 12.0423 1.3889 12.5889C1.54296 13.0608 1.81005 13.4878 2.1669 13.8329C2.51195 14.1898 2.93902 14.4568 3.4109 14.6109C3.95754 14.8179 4.53739 14.9233 5.1219 14.9219C6.07866 15.008 7.03988 15.0341 7.9999 14.9999C8.95992 15.0341 9.92114 15.008 10.8779 14.9219C11.4624 14.9233 12.0423 14.8179 12.5889 14.6109C13.0573 14.4495 13.4829 14.1835 13.8332 13.8332C14.1835 13.4829 14.4495 13.0573 14.6109 12.5889C14.8179 12.0423 14.9233 11.4624 14.9219 10.8779C14.9219 10.0999 14.9999 9.8669 14.9999 7.9999C15.0341 7.03988 15.008 6.07866 14.9219 5.1219C14.9233 4.53739 14.8179 3.95754 14.6109 3.4109C14.4568 2.93902 14.1898 2.51195 13.8329 2.1669C13.4878 1.81005 13.0608 1.54296 12.5889 1.3889C12.0423 1.18192 11.4624 1.07653 10.8779 1.0779C9.92114 0.991775 8.95992 0.965724 7.9999 0.999901ZM7.9999 4.4219C7.52787 4.41406 7.05908 4.50125 6.62143 4.67828C6.18379 4.85531 5.78622 5.11858 5.4524 5.4524C5.11858 5.78622 4.85531 6.18379 4.67828 6.62143C4.50125 7.05908 4.41406 7.52787 4.4219 7.9999C4.4219 8.70756 4.63175 9.39933 5.0249 9.98773C5.41806 10.5761 5.97687 11.0347 6.63066 11.3055C7.28445 11.5764 8.00387 11.6472 8.69793 11.5092C9.392 11.3711 10.0295 11.0303 10.5299 10.5299C11.0303 10.0295 11.3711 9.392 11.5092 8.69793C11.6472 8.00387 11.5764 7.28445 11.3055 6.63066C11.0347 5.97687 10.5761 5.41806 9.98773 5.0249C9.39933 4.63175 8.70756 4.4219 7.9999 4.4219ZM7.9999 10.3329C7.692 10.3385 7.38613 10.2819 7.10057 10.1666C6.815 10.0514 6.55559 9.87972 6.33784 9.66196C6.12008 9.44421 5.94844 9.1848 5.83317 8.89924C5.71789 8.61367 5.66134 8.3078 5.6669 7.9999C5.66134 7.692 5.71789 7.38613 5.83317 7.10057C5.94844 6.815 6.12008 6.55559 6.33784 6.33784C6.55559 6.12008 6.815 5.94844 7.10057 5.83317C7.38613 5.71789 7.692 5.66134 7.9999 5.6669C8.3078 5.66134 8.61367 5.71789 8.89924 5.83317C9.1848 5.94844 9.44421 6.12008 9.66196 6.33784C9.87972 6.55559 10.0514 6.815 10.1666 7.10057C10.2819 7.38613 10.3385 7.692 10.3329 7.9999C10.3385 8.3078 10.2819 8.61367 10.1666 8.89924C10.0514 9.1848 9.87972 9.44421 9.66196 9.66196C9.44421 9.87972 9.1848 10.0514 8.89924 10.1666C8.61367 10.2819 8.3078 10.3385 7.9999 10.3329ZM11.7329 3.4109C11.5636 3.4109 11.3981 3.4611 11.2573 3.55516C11.1166 3.64922 11.0068 3.78291 10.9421 3.93932C10.8773 4.09574 10.8603 4.26785 10.8933 4.4339C10.9264 4.59995 11.0079 4.75247 11.1276 4.87218C11.2473 4.9919 11.3999 5.07342 11.5659 5.10645C11.732 5.13948 11.9041 5.12253 12.0605 5.05774C12.2169 4.99295 12.3506 4.88324 12.4446 4.74247C12.5387 4.6017 12.5889 4.4362 12.5889 4.2669C12.5871 4.04044 12.4963 3.82378 12.3362 3.66364C12.176 3.5035 11.9594 3.41273 11.7329 3.4109Z" fill="#ED165F"/>
</svg>
