<?xml version="1.0" encoding="utf-8"?><svg viewBox="0 0 16 17" xmlns="http://www.w3.org/2000/svg" xmlns:xlink="http://www.w3.org/1999/xlink"><style>:root>svg{display:none}:root>svg:target{display:block}</style><svg fill="none" viewBox="0 0 14 17" id="book" xmlns="http://www.w3.org/2000/svg"><path d="M1.004 5.054H.471a.47.47 0 000 .942h.533v-.942zM1.004 12.587H.471a.47.47 0 000 .942h.533v-.942zM1.004 10.076H.471a.47.47 0 000 .942h.533v-.942zM1.004 7.565H.471a.47.47 0 000 .942h.533v-.942zM1.004 2.543H.471a.47.47 0 000 .941h.533v-.941zM4.018 0h-1.6c-.78 0-1.413.634-1.413 1.413v1.13H2.48a.47.47 0 010 .941H1.005v1.57H2.48a.47.47 0 010 .942H1.005v1.569H2.48a.47.47 0 010 .942H1.005v1.57H2.48a.47.47 0 010 .94H1.005v1.57H2.48a.47.47 0 010 .942H1.005v1.13c0 .78.634 1.413 1.412 1.413h1.601V0zM7.941 3.484h2.135v1.068H7.94V3.484z" fill="#000"/><path d="M12.588 0H4.96v16.072h7.628c.779 0 1.412-.634 1.412-1.413V1.413C14 .633 13.367 0 12.588 0zm-1.57 5.022c0 .26-.21.471-.47.471H7.47a.47.47 0 01-.47-.47v-2.01c0-.26.21-.47.47-.47h3.076c.26 0 .471.21.471.47v2.01z" fill="#000"/></svg><svg fill="none" viewBox="0 0 16 16" id="corz" xmlns="http://www.w3.org/2000/svg"><path d="M12.8 12.8a1.6 1.6 0 100 3.2 1.6 1.6 0 000-3.2zM0 0v1.6h1.6l2.88 6.072-1.088 1.96a1.63 1.63 0 00-.192.768A1.6 1.6 0 004.8 12h9.6v-1.6H5.136a.2.2 0 01-.2-.2.17.17 0 01.024-.096L5.68 8.8h5.96c.6 0 1.128-.336 1.4-.824L15.904 2.8c.056-.128.096-.264.096-.4a.8.8 0 00-.8-.8H3.368L2.616 0H0zm4.8 12.8a1.6 1.6 0 100 3.2 1.6 1.6 0 000-3.2z" fill="#000"/></svg><svg fill="none" viewBox="0 0 8 15" id="facebook" xmlns="http://www.w3.org/2000/svg"><path fill-rule="evenodd" clip-rule="evenodd" d="M4.744 15V8.622h2.178l.311-2.49H4.744V4.579c0-.7.233-1.244 1.244-1.244H7.31V1.078C7 1.078 6.222 1 5.367 1a3 3 0 00-3.189 3.267v1.866H0v2.489h2.178V15h2.566z" fill="#ED165F"/></svg><svg fill="none" viewBox="0 0 16 16" id="instagram" xmlns="http://www.w3.org/2000/svg"><path fill-rule="evenodd" clip-rule="evenodd" d="M8 2.244c.934-.035 1.87-.009 2.8.078.451-.006.9.073 1.322.233.582.271 1.05.74 1.322 1.322.16.422.24.871.234 1.323 0 .7.078.933.078 2.8.035.934.009 1.87-.078 2.8.006.451-.073.9-.233 1.322a2.732 2.732 0 01-1.322 1.322c-.422.16-.87.239-1.322.233-.7 0-.933.078-2.8.078a21.47 21.47 0 01-2.8-.078c-.451.006-.9-.073-1.322-.233a2.732 2.732 0 01-1.322-1.322c-.16-.422-.24-.87-.235-1.322 0-.7-.078-.933-.078-2.8-.035-.934-.009-1.87.078-2.8-.006-.451.073-.9.233-1.322.136-.289.32-.552.545-.778.182-.272.46-.466.778-.544.422-.16.87-.24 1.322-.234.93-.087 1.866-.113 2.8-.078zM8 1a22.981 22.981 0 00-2.878.078 4.8 4.8 0 00-1.711.31 3.045 3.045 0 00-1.244.779 3.045 3.045 0 00-.778 1.244 3.544 3.544 0 00-.311 1.71A22.981 22.981 0 001 8c-.034.96-.008 1.921.078 2.878a4.8 4.8 0 00.31 1.71c.155.473.422.9.779 1.245.345.357.772.624 1.244.778a4.799 4.799 0 001.71.31c.958.087 1.919.113 2.879.079.96.034 1.921.008 2.878-.078a4.799 4.799 0 001.71-.311 3.263 3.263 0 002.023-2.022 4.799 4.799 0 00.31-1.711C14.922 10.1 15 9.867 15 8c.034-.96.008-1.921-.078-2.878a4.799 4.799 0 00-.311-1.711 3.045 3.045 0 00-.778-1.244 3.045 3.045 0 00-1.244-.778 4.8 4.8 0 00-1.711-.311A22.981 22.981 0 008 1zm0 3.422A3.52 3.52 0 004.422 8 3.578 3.578 0 108 4.422zm0 5.91A2.29 2.29 0 015.667 8 2.292 2.292 0 018 5.667 2.292 2.292 0 0110.333 8 2.29 2.29 0 018 10.333zm3.733-6.921a.856.856 0 10.856.856.863.863 0 00-.856-.856z" fill="#ED165F"/></svg><svg fill="none" viewBox="0 0 16 15" id="like" xmlns="http://www.w3.org/2000/svg"><path d="M14.73 1.393A4.302 4.302 0 0011.53 0c-.923 0-1.769.292-2.514.868-.375.29-.716.646-1.016 1.061A5.14 5.14 0 006.984.868 4.025 4.025 0 004.47 0a4.303 4.303 0 00-3.2 1.393C.45 2.281 0 3.493 0 4.808 0 6.162.504 7.4 1.587 8.707c.968 1.168 2.36 2.354 3.972 3.728.55.47 1.175 1.001 1.822 1.567a.938.938 0 001.237 0c.648-.566 1.272-1.098 1.823-1.567 1.612-1.374 3.004-2.56 3.972-3.728C15.496 7.4 16 6.162 16 4.808c0-1.314-.45-2.527-1.27-3.415z" fill="#000"/></svg><svg fill="none" viewBox="0 0 14 13" id="like2" xmlns="http://www.w3.org/2000/svg"><path d="M12.89 1.219A3.765 3.765 0 0010.09 0c-.809 0-1.55.255-2.2.76a4.5 4.5 0 00-.89.928 4.498 4.498 0 00-.89-.929A3.521 3.521 0 003.91 0a3.765 3.765 0 00-2.8 1.219C.395 1.996 0 3.057 0 4.207c0 1.184.441 2.268 1.389 3.411.847 1.023 2.065 2.06 3.475 3.263.482.41 1.028.876 1.595 1.371a.82.82 0 001.082 0c.567-.495 1.113-.96 1.595-1.372 1.41-1.201 2.628-2.24 3.476-3.262C13.559 6.475 14 5.391 14 4.208c0-1.151-.395-2.212-1.11-2.99z" fill="#fff"/></svg><svg fill="none" viewBox="0 0 16 16" id="log" xmlns="http://www.w3.org/2000/svg"><path d="M8 0a4 4 0 110 8 4 4 0 010-8zm0 10c4.42 0 8 1.79 8 4v2H0v-2c0-2.21 3.58-4 8-4z" fill="#ED165F"/></svg><svg fill="none" viewBox="0 0 14 17" id="log2" xmlns="http://www.w3.org/2000/svg"><path d="M6.894 8.083A3.91 3.91 0 009.752 6.9a3.91 3.91 0 001.184-2.858c0-1.11-.398-2.071-1.184-2.857A3.912 3.912 0 006.894 0a3.91 3.91 0 00-2.857 1.184 3.91 3.91 0 00-1.184 2.857A3.91 3.91 0 004.037 6.9a3.912 3.912 0 002.857 1.184zM13.966 12.903a9.99 9.99 0 00-.136-1.06 8.352 8.352 0 00-.26-1.066 5.262 5.262 0 00-.439-.994 3.751 3.751 0 00-.66-.861c-.262-.25-.58-.45-.95-.597a3.28 3.28 0 00-1.212-.22c-.171 0-.337.071-.657.28a88.68 88.68 0 01-.684.44 3.92 3.92 0 01-.886.39A3.516 3.516 0 017 9.392a3.52 3.52 0 01-1.083-.175 3.911 3.911 0 01-.885-.39 93.785 93.785 0 01-.685-.442c-.32-.208-.486-.278-.657-.278-.436 0-.844.073-1.212.22a2.911 2.911 0 00-.949.596c-.25.238-.472.528-.66.86-.183.321-.33.656-.439.995a8.377 8.377 0 00-.26 1.066 9.951 9.951 0 00-.136 1.06c-.023.322-.034.655-.034.992 0 .876.278 1.585.828 2.108.542.516 1.26.778 2.132.778h8.08c.873 0 1.59-.262 2.132-.778.55-.523.828-1.232.828-2.108 0-.339-.011-.672-.034-.992z" fill="#000"/></svg><svg fill="none" viewBox="0 0 14 14" id="present" xmlns="http://www.w3.org/2000/svg"><path d="M13.087 2.715h-1.02c.135-.213.224-.452.25-.704A1.796 1.796 0 0011.247.159a1.79 1.79 0 00-1.95.314L8.01 1.639a1.366 1.366 0 00-2.023.002L4.7.473A1.79 1.79 0 002.748.159a1.796 1.796 0 00-1.067 1.852c.025.252.114.491.248.704H.913A.913.913 0 000 3.628v1.37c0 .251.204.456.457.456h13.086A.457.457 0 0014 4.997v-1.37a.913.913 0 00-.913-.912zM5.63 2.562v.153H3.483a.9.9 0 01-.873-1.12A.896.896 0 013.104 1a.879.879 0 01.983.149L5.63 2.548v.013zm5.78-.673c-.034.475-.462.826-.938.826H8.37v-.152-.017L9.89 1.17c.233-.212.56-.311.863-.221.434.13.69.499.657.941zM.913 6.367v6.695c0 .505.409.914.913.914h4.261v-7.61H.913zM7.913 6.367v7.609h4.26a.913.913 0 00.914-.914V6.367H7.913z" fill="#000"/></svg><svg fill="none" viewBox="0 0 16 16" id="remove" xmlns="http://www.w3.org/2000/svg"><path d="M7.999 0A8 8 0 000 8a8 8 0 107.999-8zm3.44 10.166l-1.275 1.273S8.148 9.276 7.998 9.276c-.148 0-2.164 2.163-2.164 2.163l-1.275-1.273S6.724 8.18 6.724 8.003c0-.18-2.165-2.167-2.165-2.167l1.275-1.275s2.032 2.164 2.164 2.164c.133 0 2.166-2.164 2.166-2.164l1.274 1.275S9.273 7.852 9.273 8.003c0 .144 2.165 2.163 2.165 2.163z" fill="#ED165F"/></svg><svg fill="none" viewBox="0 0 16 16" id="search" xmlns="http://www.w3.org/2000/svg"><path d="M5.943 0a5.943 5.943 0 015.943 5.943c0 1.472-.54 2.825-1.427 3.867l.247.247h.723L16 14.63 14.629 16l-4.572-4.571v-.723l-.247-.247a5.957 5.957 0 01-3.867 1.427A5.943 5.943 0 115.943 0zm0 1.829a4.097 4.097 0 00-4.114 4.114 4.097 4.097 0 004.114 4.114 4.097 4.097 0 004.114-4.114 4.097 4.097 0 00-4.114-4.114z" fill="#000"/></svg><svg fill="none" viewBox="0 0 14 12" id="twitter" xmlns="http://www.w3.org/2000/svg"><path fill-rule="evenodd" clip-rule="evenodd" d="M4.433 11.356A8.096 8.096 0 0012.6 3.19V2.8A6.324 6.324 0 0014 1.322a6.458 6.458 0 01-1.633.467A3.026 3.026 0 0013.611.233a7.133 7.133 0 01-1.789.7A2.778 2.778 0 009.722 0a2.922 2.922 0 00-2.878 2.878c-.018.21.009.422.078.622A8.041 8.041 0 011.011.467c-.256.45-.39.96-.389 1.478a3.09 3.09 0 001.244 2.411 2.622 2.622 0 01-1.322-.389 2.843 2.843 0 002.333 2.8 2.4 2.4 0 01-.778.078 1.324 1.324 0 01-.544-.078A2.947 2.947 0 004.277 8.79 5.872 5.872 0 01.7 10.033a2.154 2.154 0 01-.7-.078 7.34 7.34 0 004.433 1.4" fill="#ED165F"/></svg></svg>